<?xml version="1.0" encoding="UTF-8" standalone="no"?>
<!DOCTYPE svg PUBLIC "-//W3C//DTD SVG 1.1//EN" "http://www.w3.org/Graphics/SVG/1.1/DTD/svg11.dtd">
<svg width="100%" height="100%" viewBox="0 0 64 64" version="1.1" xmlns="http://www.w3.org/2000/svg" xmlns:xlink="http://www.w3.org/1999/xlink" xml:space="preserve" xmlns:serif="http://www.serif.com/" style="fill-rule:evenodd;clip-rule:evenodd;stroke-linejoin:round;stroke-miterlimit:2;">
    <g>
        <g transform="matrix(0.977125,0,0,0.986318,0.446346,0.479614)">
            <path d="M63.671,3.071C63.671,1.405 62.308,0.055 60.627,0.055C49.927,0.055 14.118,0.055 3.417,0.055C1.736,0.055 0.373,1.405 0.373,3.071C0.373,13.808 0.373,50.101 0.373,60.838C0.373,62.504 1.736,63.854 3.417,63.854C14.118,63.854 49.927,63.854 60.627,63.854C62.308,63.854 63.671,62.504 63.671,60.838C63.671,50.101 63.671,13.808 63.671,3.071Z"/>
        </g>
        <g transform="matrix(0.930162,0,0,0.962304,1.95269,0.819419)">
            <path d="M1.176,30.853L1.176,28.99L3.351,28.99L1.176,30.853ZM5.76,26.927L1.176,26.927L1.176,20.04L20.41,20.04L20.41,26.927L15.445,26.927L13.88,24.272C13.462,23.563 12.752,23.075 11.94,22.941C11.129,22.807 10.299,23.038 9.675,23.574L5.76,26.927ZM16.662,28.99L20.41,28.99L20.41,31.113L16.764,29.164L16.662,28.99ZM22.41,32.182L22.41,28.99L28.804,28.99L22.435,32.196L22.41,32.182ZM34.782,26.927L22.41,26.927L22.41,20.04L38.487,20.04L34.782,26.927ZM39.563,18.04L22.41,18.04L22.41,11.153L41.644,11.153L41.644,16.204C40.864,16.378 40.184,16.881 39.798,17.603L39.563,18.04ZM43.643,16.515L43.643,11.153L62.877,11.153L62.877,18.04L44.918,18.04L44.727,17.663C44.479,17.174 44.099,16.78 43.643,16.515ZM45.931,20.04L62.877,20.04L62.877,22.747C62.011,22.529 61.054,22.731 60.338,23.372L56.377,26.927L49.419,26.927L45.931,20.04ZM62.877,32.826L62.877,35.877L54.729,35.877L56.461,34.323L62.69,32.878C62.754,32.864 62.816,32.846 62.877,32.826ZM52.494,37.877L62.877,37.877L62.877,44.764L43.643,44.764L43.643,37.877L49.007,37.877C49.36,38.161 49.782,38.359 50.238,38.444C51.04,38.595 51.863,38.386 52.494,37.877ZM47.718,35.877L43.643,35.877L43.643,30.875L45.652,31.798L47.718,35.877ZM41.644,30.583L41.644,35.877L36.281,35.877L38.901,31.006L41.644,30.583ZM35.205,37.877L41.644,37.877L41.644,44.764L24.119,44.764L34.07,39.094C34.523,38.835 34.894,38.455 35.141,37.996L35.205,37.877ZM19.553,44.764L1.176,44.764L1.176,37.877L15.445,37.877C17.421,41.229 19.274,44.373 19.274,44.373C19.357,44.513 19.451,44.644 19.553,44.764ZM14.266,35.877L3.751,35.877C3.931,35.782 4.104,35.666 4.265,35.528L5.585,34.398L12.416,32.738C12.962,33.664 13.601,34.749 14.266,35.877ZM31.857,32.365L30.623,34.658L28.485,35.877L24.879,35.877L31.857,32.365ZM22.41,38.741L22.41,37.877L24.975,37.877L22.673,39.188L22.41,38.741ZM50.464,28.99L54.078,28.99L52.714,30.214L50.589,29.237L50.464,28.99ZM20.41,46.764L20.41,53.651L1.176,53.651L1.176,46.764L20.41,46.764ZM41.644,46.764L41.644,53.651L22.41,53.651L22.41,46.764L41.644,46.764ZM62.877,46.764L62.877,53.651L43.643,53.651L43.643,46.764L62.877,46.764ZM20.41,55.651L20.41,62.538L2.94,62.538C1.966,62.538 1.176,61.775 1.176,60.833C1.176,58.794 1.176,55.651 1.176,55.651L20.41,55.651ZM41.644,55.651L41.644,62.538L22.41,62.538L22.41,55.651L41.644,55.651ZM62.877,55.651L62.877,60.833C62.877,61.775 62.087,62.538 61.113,62.538C56.361,62.538 43.643,62.538 43.643,62.538L43.643,55.651L62.877,55.651ZM20.41,18.04L1.176,18.04L1.176,11.153L20.41,11.153L20.41,18.04ZM20.41,9.153L1.176,9.153L1.176,3.971C1.176,3.029 1.966,2.266 2.94,2.266C7.692,2.266 20.41,2.266 20.41,2.266L20.41,9.153ZM41.644,9.153L22.41,9.153L22.41,2.266L41.644,2.266L41.644,9.153ZM62.877,9.153L43.643,9.153L43.643,2.266L61.113,2.266C62.087,2.266 62.877,3.029 62.877,3.971C62.877,6.01 62.877,9.153 62.877,9.153Z" style="fill:url(#_Radial1);"/>
        </g>
        <g transform="matrix(0.930162,0,0,0.962304,1.95269,0.819419)">
            <path d="M1.176,30.853L1.176,28.99L3.351,28.99L1.176,30.853ZM5.76,26.927L1.176,26.927L1.176,20.04L20.41,20.04L20.41,26.927L15.445,26.927L13.88,24.272C13.462,23.563 12.752,23.075 11.94,22.941C11.129,22.807 10.299,23.038 9.675,23.574L5.76,26.927ZM16.662,28.99L20.41,28.99L20.41,31.113L16.764,29.164L16.662,28.99ZM22.41,32.182L22.41,28.99L28.804,28.99L22.435,32.196L22.41,32.182ZM34.782,26.927L22.41,26.927L22.41,20.04L38.487,20.04L34.782,26.927ZM39.563,18.04L22.41,18.04L22.41,11.153L41.644,11.153L41.644,16.204C40.864,16.378 40.184,16.881 39.798,17.603L39.563,18.04ZM43.643,16.515L43.643,11.153L62.877,11.153L62.877,18.04L44.918,18.04L44.727,17.663C44.479,17.174 44.099,16.78 43.643,16.515ZM45.931,20.04L62.877,20.04L62.877,22.747C62.011,22.529 61.054,22.731 60.338,23.372L56.377,26.927L49.419,26.927L45.931,20.04ZM62.877,32.826L62.877,35.877L54.729,35.877L56.461,34.323L62.69,32.878C62.754,32.864 62.816,32.846 62.877,32.826ZM52.494,37.877L62.877,37.877L62.877,44.764L43.643,44.764L43.643,37.877L49.007,37.877C49.36,38.161 49.782,38.359 50.238,38.444C51.04,38.595 51.863,38.386 52.494,37.877ZM47.718,35.877L43.643,35.877L43.643,30.875L45.652,31.798L47.718,35.877ZM41.644,30.583L41.644,35.877L36.281,35.877L38.901,31.006L41.644,30.583ZM35.205,37.877L41.644,37.877L41.644,44.764L24.119,44.764L34.07,39.094C34.523,38.835 34.894,38.455 35.141,37.996L35.205,37.877ZM19.553,44.764L1.176,44.764L1.176,37.877L15.445,37.877C17.421,41.229 19.274,44.373 19.274,44.373C19.357,44.513 19.451,44.644 19.553,44.764ZM14.266,35.877L3.751,35.877C3.931,35.782 4.104,35.666 4.265,35.528L5.585,34.398L12.416,32.738C12.962,33.664 13.601,34.749 14.266,35.877ZM31.857,32.365L30.623,34.658L28.485,35.877L24.879,35.877L31.857,32.365ZM22.41,38.741L22.41,37.877L24.975,37.877L22.673,39.188L22.41,38.741ZM50.464,28.99L54.078,28.99L52.714,30.214L50.589,29.237L50.464,28.99ZM20.41,46.764L20.41,53.651L1.176,53.651L1.176,46.764L20.41,46.764ZM41.644,46.764L41.644,53.651L22.41,53.651L22.41,46.764L41.644,46.764ZM62.877,46.764L62.877,53.651L43.643,53.651L43.643,46.764L62.877,46.764ZM20.41,55.651L20.41,62.538L2.896,62.538C2.44,62.538 2.002,62.363 1.68,62.051C1.357,61.739 1.176,61.316 1.176,60.875C1.176,58.837 1.176,55.651 1.176,55.651L20.41,55.651ZM41.644,55.651L41.644,62.538L22.41,62.538L22.41,55.651L41.644,55.651ZM62.877,55.651L62.877,60.875C62.877,61.316 62.696,61.739 62.373,62.051C62.051,62.363 61.613,62.538 61.157,62.538C56.439,62.538 43.643,62.538 43.643,62.538L43.643,55.651L62.877,55.651ZM20.41,18.04L1.176,18.04L1.176,11.153L20.41,11.153L20.41,18.04ZM20.41,9.153L1.176,9.153L1.176,3.929C1.176,3.488 1.357,3.065 1.68,2.753C2.002,2.441 2.44,2.266 2.896,2.266C7.614,2.266 20.41,2.266 20.41,2.266L20.41,9.153ZM41.644,9.153L22.41,9.153L22.41,2.266L41.644,2.266L41.644,9.153ZM62.877,9.153L43.643,9.153L43.643,2.266L61.157,2.266C61.613,2.266 62.051,2.441 62.373,2.753C62.696,3.065 62.877,3.488 62.877,3.929C62.877,5.967 62.877,9.153 62.877,9.153Z" style="fill:white;fill-opacity:0.53;"/>
        </g>
        <g transform="matrix(0.930162,0,0,0.962304,1.95269,0.819419)">
            <path d="M62.025,30.011C62.428,29.917 62.831,30.169 62.925,30.572C63.018,30.976 62.767,31.379 62.364,31.472L53.335,33.565C53.173,33.603 53.003,33.586 52.852,33.517L42.873,28.933L32.19,30.581L22.741,35.337C22.524,35.446 22.266,35.443 22.051,35.328L13.799,30.916L2.634,33.629C2.232,33.727 1.826,33.48 1.728,33.077C1.63,32.675 1.877,32.269 2.28,32.172L13.723,29.391C13.902,29.348 14.091,29.372 14.254,29.459L22.415,33.822L31.621,29.188C31.691,29.153 31.766,29.129 31.844,29.117L42.867,27.416C43.013,27.394 43.161,27.415 43.295,27.476L53.246,32.046L62.025,30.011Z" style="fill:rgb(237,14,98);"/>
        </g>
        <g transform="matrix(0.930162,0,0,0.962304,1.95269,0.819419)">
            <path d="M3.228,30.996L10.616,24.669C10.916,24.412 11.315,24.301 11.705,24.366C12.095,24.43 12.436,24.665 12.637,25.005L14.829,28.724C14.737,28.675 14.687,28.648 14.687,28.648C14.324,28.455 13.903,28.402 13.505,28.499L11.832,28.905L11.144,27.737L8.967,29.602L3.228,30.996ZM36.096,27.531L41.07,18.285C41.305,17.847 41.765,17.576 42.263,17.582C42.761,17.588 43.214,17.871 43.439,18.315L48.862,29.022C47.433,28.366 45.964,27.691 44.956,27.228L42.211,21.806L39.406,27.021L36.096,27.531ZM54.107,30.904L61.301,24.447C61.851,23.955 62.696,24.001 63.189,24.55C63.682,25.099 63.636,25.944 63.087,26.437L59.504,29.652L54.107,30.904ZM54.356,34.272L51.643,36.706C51.334,36.985 50.913,37.102 50.504,37.025C50.096,36.949 49.746,36.687 49.558,36.316L47.38,32.014L52.469,34.352C52.805,34.505 53.183,34.544 53.543,34.46L54.356,34.272ZM37.425,30.703L33.87,37.312C33.751,37.532 33.573,37.715 33.355,37.84L22.331,44.122C21.696,44.484 20.889,44.269 20.518,43.639L13.603,31.909L13.675,31.892L18.087,34.25L22.152,41.147L31.698,35.707L34.115,31.214L37.425,30.703Z" style="fill:white;"/>
        </g>
    </g>
    <defs>
        <radialGradient id="_Radial1" cx="0" cy="0" r="1" gradientUnits="userSpaceOnUse" gradientTransform="matrix(-27.2966,-71.4167,71.4167,-27.2966,53.7533,67.929)"><stop offset="0" style="stop-color:rgb(255,116,34);stop-opacity:1"/><stop offset="0.21" style="stop-color:rgb(236,255,28);stop-opacity:1"/><stop offset="0.4" style="stop-color:rgb(21,255,192);stop-opacity:1"/><stop offset="0.62" style="stop-color:rgb(21,169,255);stop-opacity:1"/><stop offset="0.75" style="stop-color:rgb(62,103,255);stop-opacity:1"/><stop offset="1" style="stop-color:rgb(209,0,255);stop-opacity:1"/></radialGradient>
    </defs>
</svg>
